<svg xmlns="http://www.w3.org/2000/svg" version="1.1" xmlns:xlink="http://www.w3.org/1999/xlink" xmlns:svgjs="http://svgjs.com/svgjs" width="454.4" height="241"><svg version="1.1" id="SvgjsSvg1043" xmlns="http://www.w3.org/2000/svg" xmlns:xlink="http://www.w3.org/1999/xlink" x="0px" y="0px" style="enable-background:new 0 0 841.9 595.3;" xml:space="preserve" viewBox="-669 792.4 454.4 241"> <style type="text/css"> 	.st0{fill:#3EBF1F;} 	.st1{fill:#2186D8;} 	.st2{fill:#006AB2;} 	.st3{fill:#FFFFFF;} 	.st4{fill:#0091E2;} 	.st5{fill:#79CE00;} 	.st6{fill:#007ACC;} </style><!--  <g id="XMLID_38_"> 	<g id="XMLID_39_"> 		<path id="XMLID_41_" class="st0" d="M-444.4,401.8c-56.8,0-110.5-10.9-151.1-30.7c-44.9-21.9-69.6-52.6-69.6-86.3 			c0-33.8,24.7-64.5,69.6-86.3c40.7-19.8,94.4-30.7,151.1-30.7s110.5,10.9,151.1,30.7l0,0c44.9,21.9,69.6,52.6,69.6,86.3 			c0,33.8-24.7,64.5-69.6,86.3C-334,390.9-387.7,401.8-444.4,401.8z M-444.4,176.5c-55.5,0-107.7,10.6-147.2,29.8 			c-41.7,20.3-64.7,48.1-64.7,78.4c0,30.2,23,58,64.7,78.4c39.5,19.2,91.8,29.8,147.2,29.8c55.5,0,107.7-10.6,147.2-29.8 			c41.7-20.3,64.7-48.1,64.7-78.4c0-30.2-23-58-64.7-78.4C-336.7,187.1-389,176.5-444.4,176.5z"/> 	</g> 	<ellipse id="XMLID_44_" class="st1" cx="-444.4" cy="284.7" rx="202.3" ry="98.6"/> 	<path id="XMLID_46_" class="st2" d="M-444.4,203.9c105.6,0,192.2,39.4,201.4,89.7c0.5-2.9,0.8-5.9,0.8-8.9 		c0-54.4-90.6-98.6-202.3-98.6c-111.7,0-202.3,44.1-202.3,98.6c0,3,0.3,6,0.8,8.9C-636.7,243.3-550,203.9-444.4,203.9z"/> 	<g id="XMLID_2_"> 		<path id="XMLID_37_" class="st3" d="M-520.2,295.6c4-4.3,8-8.8,11.8-13.4c3.8-4.7,7.4-9.2,10.7-13.7c3.3-4.5,6.2-8.9,8.7-13.1 			s4.6-8.1,6.1-11.5c0.2-0.4,0-1.1-0.5-2c-0.5-0.9-1.1-1.8-1.7-2.7c-0.7-0.9-1.3-1.6-2-2.1c-0.7-0.5-1.1-0.6-1.3-0.2 			c-2,5.3-4.5,10.6-7.3,16.1c-2.9,5.4-6.1,10.8-9.6,16c-3.5,5.3-7.4,10.4-11.5,15.5c-4.1,5.1-8.5,9.9-13,14.4 			c-4.5,4.5-9.2,8.8-14,12.7c-4.8,4-9.7,7.5-14.6,10.6c-0.5,0.3-1,0.3-1.6,0c-0.6-0.3-0.9-0.8-1-1.5c-0.1-0.5,0.5-2,1.8-4.3 			c1.3-2.4,2.9-5.3,5-8.8c2.1-3.5,4.5-7.5,7.1-11.9c2.6-4.4,5.3-9,7.9-13.6c2.7-4.7,5.2-9.3,7.7-13.8c2.5-4.6,4.6-8.8,6.4-12.6 			c0.3-0.7,0.1-1.7-0.4-2.8c-0.6-1.1-1.3-2.1-2.2-3c-0.9-0.9-1.9-1.5-2.9-1.8c-1-0.3-1.8-0.2-2.4,0.5c0,0.1-0.1,0.4-0.2,0.8 			c-0.1,0.4-0.2,0.8-0.4,1.3c-0.1,0.5-0.3,0.9-0.4,1.2c-0.1,0.4-0.2,0.6-0.3,0.6c-1.8,4-3.8,7.8-5.8,11.6c-2,3.8-4.1,7.5-6.3,11.2 			c-0.1,0.1-0.1,0.1-0.2,0.1c-1.1,1.9-2.6,4.3-4.4,7.1c-1.8,2.8-3.7,5.9-5.9,9c-2.2,3.2-4.4,6.4-6.8,9.6c-2.4,3.2-4.9,6.2-7.3,8.9 			c-2.5,2.7-4.9,5-7.3,6.8c-2.4,1.9-4.6,3-6.7,3.4c-2.8,0.5-4.6,0-5.3-1.7c-0.7-1.6-0.6-4,0.1-7.1c0.8-3.1,2.1-6.8,4-11 			c1.9-4.2,4.1-8.6,6.5-13.1c2.4-4.5,5-9.1,7.6-13.6c2.6-4.5,5-8.6,7.1-12.4c2.2-3.7,3.9-6.9,5.3-9.5c1.4-2.6,2.1-4.2,2-4.9 			c0-0.7-0.2-1.4-0.7-2.3c-0.5-0.8-1.1-1.6-1.9-2.4c-0.8-0.8-1.7-1.4-2.6-2c-1-0.5-1.9-0.9-2.8-1c-2.7-0.3-5.9-0.2-9.6,0.2 			c-3.7,0.4-7.6,1.2-11.7,2.4c-4.1,1.2-8.2,2.8-12.4,4.7c-4.2,2-8,4.3-11.6,7.1c-3.6,2.8-6.7,6-9.3,9.7c-2.6,3.6-4.5,7.7-5.6,12.2 			c-0.3,1.4-0.2,2.6,0.4,3.7c0.6,1.1,1.4,1.9,2.4,2.6c0.9,0.7,1.9,1.2,2.8,1.4c0.9,0.3,1.6,0.2,1.9-0.1c-0.1-2.1,0.5-4.5,1.7-7.1 			c1.3-2.6,3.1-5.2,5.4-7.9c2.3-2.7,5.1-5.3,8.3-7.9c3.2-2.6,6.7-4.9,10.5-7c3.8-2.1,7.7-3.8,11.9-5.2c4.2-1.4,8.4-2.2,12.6-2.5 			c0.7-0.1,1.2,0.3,1.5,1c0.2,0.7,0.1,1.3-0.3,1.8c-3.6,5.1-7.1,10.5-10.6,16c-3.5,5.6-6.7,11.1-9.6,16.5 			c-2.9,5.4-5.4,10.5-7.5,15.3c-2.1,4.8-3.6,9-4.4,12.6c-0.5,2.3-0.5,4.5-0.3,6.7c0.3,2.2,1,4,2.1,5.5c1.1,1.5,2.7,2.6,4.6,3.3 			c2,0.7,4.4,0.6,7.3,0c1.5-0.3,3.2-1.1,4.9-2.2c1.7-1.1,3.5-2.4,5.3-4c1.8-1.6,3.6-3.3,5.5-5.3c1.8-2,3.7-4,5.5-6.1 			c-2,4.1-3.8,8.3-5.4,12.6c0,1,0.2,1.9,0.6,2.8c0.4,0.9,1,1.7,1.7,2.4c0.7,0.7,1.5,1.2,2.4,1.6c0.9,0.4,1.8,0.6,2.7,0.6 			c2.2-0.1,4.9-0.9,8.1-2.5c3.1-1.6,6.5-3.9,10.2-6.7c3.7-2.8,7.5-6.1,11.5-9.9C-528.2,303.9-524.2,299.9-520.2,295.6z"/> 		<path id="XMLID_33_" class="st3" d="M-289.3,293.4c1.2-1.7,2.3-3.5,3.4-5.3c1.1-1.8,2.2-3.6,3.4-5.4c0.2-0.4,0.3-0.7,0.2-1 			c-0.1-0.3-0.3-0.5-0.6-0.7c-0.3-0.2-0.5-0.2-0.9-0.2c-0.3,0-0.6,0.2-0.7,0.5c-1.1,1.7-2.3,3.6-3.5,5.7c-1.2,2.1-2.6,4-4,5.9 			c-1.4,1.9-3,3.6-4.7,5.1c-1.7,1.5-3.5,2.5-5.5,3.1h-1c-1.1-0.1-1.6-0.9-1.5-2.6c0.1-1.7,0.6-3.8,1.4-6.3c0.8-2.5,1.9-5.3,3.2-8.4 			c1.3-3,2.7-5.9,4-8.7c1.3-2.8,2.6-5.2,3.7-7.4c1.1-2.2,1.8-3.6,2.2-4.4c0.9-1.8,1.9-3.7,2.9-5.7c1-2,2-3.9,2.8-5.6 			c0.9-1.8,1.6-3.4,2.3-4.8c0.7-1.4,1.1-2.5,1.3-3.1c0.3-0.9,0.3-1.9-0.3-2.8c-0.5-1-1.2-1.8-2.1-2.5c-0.9-0.7-1.8-1.3-2.8-1.6 			c-1-0.4-1.8-0.4-2.3-0.1c-0.4,1.5-0.9,3.1-1.6,4.9c-0.6,1.8-1.4,3.6-2.2,5.6c-0.8,2-1.7,3.9-2.6,6c-0.9,2-1.9,4.1-2.8,6.1 			c-1.5,3-3,5.9-4.5,8.9c-1.5,2.9-3,5.9-4.3,8.8c-0.8,1.7-1.5,3.4-2.2,5.1c-0.9,1.4-1.8,3-2.8,4.6c-1.2,2.1-2.6,4-4,5.9 			c-1.4,1.9-3,3.6-4.7,5.1c-1.7,1.5-3.5,2.5-5.5,3.1h-1c-1.1-0.1-1.6-0.9-1.5-2.6c0.1-1.7,0.6-3.8,1.4-6.3c0.8-2.5,1.9-5.3,3.2-8.4 			c1.3-3,2.7-5.9,4-8.7c1.3-2.8,2.6-5.2,3.7-7.4c1.1-2.2,1.8-3.6,2.2-4.4c0.9-1.8,1.9-3.7,2.9-5.7c1-2,2-3.9,2.8-5.6 			c0.9-1.8,1.6-3.4,2.3-4.8c0.7-1.4,1.1-2.5,1.3-3.1c0.3-0.9,0.3-1.9-0.3-2.8c-0.5-1-1.2-1.8-2.1-2.5c-0.9-0.7-1.8-1.3-2.8-1.6 			c-1-0.4-1.8-0.4-2.3-0.1c-0.4,1.5-0.9,3.1-1.6,4.9c-0.6,1.8-1.4,3.6-2.2,5.6c-0.8,2-1.7,3.9-2.6,6c-0.9,2-1.9,4.1-2.8,6.1 			c-1.5,3-3,5.9-4.5,8.9c-1.5,2.9-3,5.9-4.3,8.8c-0.7,1.5-1.3,3-1.9,4.6c-0.6,1-1.2,2-1.8,3.1c-0.7,1.3-1.6,2.6-2.5,3.9 			c-1.8,2.6-3.7,4.9-5.6,6.7c-1.9,1.8-3.7,3.3-5.6,4.4c-1.8,1.1-3.5,1.9-5.2,2.2c-1.6,0.4-3.1,0.4-4.4,0.1c-1-0.2-1.9-0.7-2.6-1.3 			c-0.7-0.6-1.2-1.4-1.6-2.2c-0.4-0.9-0.7-1.8-0.9-2.8c-0.2-1-0.2-2-0.2-2.9c5.1-1.4,9.7-3.6,13.9-6.7c4.2-3.1,7.6-6.9,10.2-11.6 			c1-1.6,1.6-3.1,1.9-4.5c0.2-1.4,0.1-2.6-0.4-3.7c-0.5-1.1-1.2-1.9-2.2-2.5c-1-0.6-2.2-0.9-3.6-0.9c-2.1-0.1-4.3,0.3-6.4,1 			c-2.1,0.7-4.1,1.7-6,2.9c-1.9,1.2-3.6,2.5-5.2,3.9c-1.6,1.4-2.8,2.7-3.7,3.9c-2.9,3.8-5,7.3-6.2,10.6c-0.2,0.5-0.4,1-0.5,1.5 			c-1.2,2.1-2.6,4-4,5.9c-1.5,1.9-3,3.6-4.7,5.1c-1.7,1.5-3.5,2.5-5.5,3.1h-1c-0.7-0.1-1.2-0.5-1.4-1.2c-0.2-0.7-0.2-1.7,0-2.9 			c0.2-1.2,0.5-2.5,0.9-4c0.5-1.5,1-2.9,1.6-4.3v0.2c1.7-4.5,3.6-8.9,5.8-13.1c2.2-4.2,4.3-8.4,6.5-12.5c1-1.8,2-3.7,3-5.7 			c1-2,2-3.9,2.8-5.6c0.9-1.8,1.7-3.4,2.3-4.8c0.7-1.4,1.1-2.5,1.3-3.1c0.3-0.9,0.2-1.9-0.3-2.8c-0.5-1-1.2-1.8-2-2.5 			c-0.8-0.7-1.7-1.3-2.7-1.6c-0.9-0.4-1.7-0.4-2.3-0.1c-0.4,1.5-0.9,3.1-1.5,4.9c-0.6,1.8-1.3,3.7-2.2,5.6c-0.8,2-1.7,4-2.7,6 			c-0.9,2-2,4-3.1,6l-4.5,8.4c-0.4-1.1-1-2-1.7-2.8c-0.7-0.8-1.7-1.4-2.8-1.7c-2.6-0.7-5.2-0.7-7.8-0.1c-2.5,0.6-5,1.6-7.3,3.1 			c-2.3,1.5-4.5,3.3-6.5,5.4c-2,2.2-3.8,4.4-5.4,6.8c-1.6,2.4-2.8,4.8-3.8,7.2c-0.1,0.2-0.1,0.3-0.2,0.5c-0.8,1.3-1.7,2.6-2.6,3.9 			c-1,1.4-2.1,2.7-3.3,3.9c-1.2,1.2-2.4,2.3-3.6,3.1c-1.2,0.9-2.3,1.6-3.4,2.1c-1.1,0.5-2,0.7-2.7,0.6c-1.1-0.1-1.8-0.3-2.2-0.8 			c-0.4-0.5-0.5-1.1-0.4-1.9c0.1-0.8,0.4-1.7,0.9-2.7c0.5-1,1-2,1.6-3c0.6-1,1.3-2,2-2.9c0.7-0.9,1.3-1.8,1.9-2.5 			c1.7-2.2,3.4-4.4,5.1-6.5c1.7-2.1,3.2-4.1,4.5-5.9c1.3-1.8,2.2-3.5,2.8-4.9c0.6-1.4,0.6-2.5,0-3.4c-0.1-0.1-0.2-0.2-0.5-0.5 			c-0.3-0.3-0.6-0.6-1-0.9c-0.4-0.3-0.7-0.5-1-0.8c-0.3-0.2-0.6-0.3-0.7-0.3c-0.3,0.3-0.9,0.8-1.9,1.3c-1,0.5-2.2,1.1-3.5,1.7 			c-1.3,0.6-2.7,1.1-4.1,1.7c-1.4,0.5-2.7,1-3.8,1.4c-1.1,0.4-2,0.6-2.7,0.7c-0.6,0.1-0.8,0-0.6-0.3l3.6-5.3 			c0.5-1.3,0.7-2.3,0.6-3.2c-0.1-0.9-0.4-1.6-0.9-2.2c-0.5-0.6-1-1.1-1.8-1.6c-0.7-0.4-1.4-0.8-2.1-1.1c-0.3,0.9-1,2.1-2,3.6 			c-1,1.5-1.9,3.1-2.8,4.7c-0.9,1.6-1.4,3.2-1.7,4.7c-0.3,1.5,0.1,2.6,1.1,3.5c-1.1,1.7-2.2,3.4-3.2,5.1c-1,1.7-2.1,3.5-3.2,5.3 			c-0.1,0.2-0.2,0.3-0.2,0.5c-0.7,1.1-1.4,2.3-2.1,3.6c-1.2,2.1-2.6,4-4,5.9c-1.5,1.9-3,3.6-4.7,5.1c-1.7,1.5-3.5,2.5-5.5,3.1h-1 			c-0.6-0.1-1-0.4-1.2-1c-0.1-0.6-0.1-1.5,0-2.5c0.1-1,0.4-2.1,0.9-3.4c0.4-1.2,0.9-2.5,1.4-3.7c0.5-1.3,1-2.5,1.5-3.7 			c0.5-1.2,0.9-2.2,1.2-3.1c0.3-0.9,0.2-1.9-0.3-2.8c-0.5-1-1.2-1.8-2.1-2.6c-0.9-0.7-1.8-1.3-2.8-1.7c-1-0.4-1.8-0.5-2.3-0.2 			c-0.1,1.1-0.4,2.5-0.8,4c-0.4,1.6-1,3.2-1.6,4.8c-0.7,1.2-1.7,2.6-2.9,4.2c-1.2,1.6-2.5,3.1-3.8,4.6c-1.4,1.5-2.7,2.7-4,3.8 			c-1.3,1.1-2.4,1.8-3.4,2c-2,0.5-3.4,0.4-4.3-0.3c-0.9-0.6-1.5-1.5-1.8-2.7c-0.3-1.2-0.3-2.5-0.2-3.8c0.2-1.4,0.4-2.6,0.7-3.5 			c0.4-1.4,1-3,1.7-4.7c0.7-1.7,1.6-3.4,2.5-5.1c1-1.7,2.1-3.3,3.3-4.9c1.2-1.6,2.5-3,3.9-4.2c1.4-1.2,2.8-2.2,4.4-2.8 			c1.5-0.7,3.1-1,4.7-0.9c1.3,0.1,2.3,0.4,3,1c0.7,0.6,1.2,1.4,1.5,2.2c0.3,0.8,0.5,1.7,0.6,2.6c0.1,0.9,0.2,1.6,0.3,2.2 			c0,0.5,0.1,0.8,0.3,1c0.2,0.2,0.5,0.3,0.8,0.3c0.3,0,0.6-0.2,0.9-0.4c0.3-0.2,0.4-0.5,0.4-0.9c0.1-1.2,0-2.4-0.1-3.7 			c-0.1-1.2-0.4-2.4-0.8-3.4c-0.4-1.1-1-2-1.7-2.8c-0.7-0.8-1.7-1.3-2.8-1.7c-2.6-0.7-5.2-0.7-7.8-0.1c-2.5,0.6-5,1.6-7.3,3.1 			c-2.3,1.5-4.5,3.3-6.5,5.4c-2,2.2-3.8,4.4-5.4,6.8c-1.5,2.4-2.8,4.8-3.8,7.2c-1,2.4-1.6,4.6-1.9,6.6c-0.2,1-0.2,2.3-0.1,3.9 			c0.1,1.6,0.4,3,1.1,4.5c0.6,1.4,1.6,2.7,3,3.7c1.3,1.1,3.3,1.7,5.7,1.8c1.4,0.1,2.8-0.2,4.2-0.8c1.4-0.7,2.8-1.5,4.2-2.6 			c1.4-1.1,2.7-2.3,4-3.7c1.3-1.4,2.5-2.8,3.7-4.2c-0.4,1.4-0.6,2.8-0.6,4.2c0,1.4,0.3,2.6,0.8,3.7c0.5,1.1,1.3,2,2.3,2.7 			c1,0.7,2.3,1.1,3.9,1.2c1,0.1,2,0,2.9-0.3c0.9-0.3,1.7-0.6,2.5-1c0.8-0.4,1.5-0.8,2.1-1.3c0.6-0.5,1.1-0.9,1.5-1.2 			c1.6-1.3,3.1-2.8,4.4-4.4c1.3-1.6,2.6-3.3,3.8-5c1.2-1.7,2.4-3.5,3.4-5.3c1.1-1.8,2.2-3.6,3.4-5.4c0.1-0.3,0.2-0.5,0.2-0.7 			c0.6-1,1.3-2,2-3c1.2-1.8,2.5-3.7,3.8-5.5c0.3,0.1,0.6,0.1,0.9,0.1c0.3,0,0.6,0,0.9,0c0.8,0,1.5,0,2.1-0.1 			c0.6-0.1,1.1-0.2,1.6-0.3c0.5-0.1,1.1-0.3,1.7-0.4c0.6-0.1,1.3-0.3,2.2-0.4c0.2-0.1,0.2,0.1,0,0.6c-0.2,0.5-0.6,1.1-1.1,1.9 			c-0.5,0.8-1.1,1.7-1.9,2.7c-0.7,1-1.5,2-2.2,3.1c-1.1,1.5-2.3,3-3.3,4.5c-1.1,1.4-2,2.9-2.9,4.4c-0.9,1.5-1.6,3-2.2,4.5 			c-0.6,1.6-0.9,3.2-0.9,5c-0.1,2,0.4,3.7,1.5,5.2c1,1.5,2.6,2.3,4.8,2.4c2.1,0.1,4.2-0.3,6.2-1.2c2-0.9,3.9-2.1,5.7-3.5 			c1.8-1.4,3.4-3,5-4.8c1.1-1.2,2-2.4,2.9-3.6c-0.1,0.8-0.1,1.8,0,2.8c0.1,1.6,0.4,3,1.1,4.5c0.6,1.4,1.6,2.7,3,3.7 			c1.3,1.1,3.3,1.7,5.7,1.8c1.4,0.1,2.8-0.2,4.2-0.8c1.4-0.7,2.8-1.5,4.2-2.6c1.4-1.1,2.7-2.3,4-3.7c1.3-1.4,2.5-2.8,3.7-4.2 			c-0.4,1.4-0.6,2.8-0.6,4.2c0,1.4,0.3,2.6,0.8,3.7c0.5,1.1,1.3,2,2.3,2.7c1,0.7,2.3,1.1,3.9,1.2c1,0.1,2,0,2.9-0.3 			c0.9-0.3,1.7-0.6,2.5-1c0.8-0.4,1.5-0.8,2.1-1.3c0.6-0.5,1.1-0.9,1.5-1.2c1.6-1.3,3.1-2.8,4.4-4.4c1.3-1.6,2.6-3.3,3.8-5 			c0-0.1,0.1-0.1,0.1-0.2c0,0.6-0.1,1.3,0,1.9c0.2,3.6,1.3,6.4,3.5,8.4c2.2,2.1,5.2,3.1,9.1,3.1c0.7,0,1.6,0,2.7,0 			c1.1,0,2.3-0.2,3.7-0.5c1.4-0.3,2.8-0.9,4.4-1.6c1.6-0.8,3.2-1.9,4.8-3.4c1.7-1.5,3.2-3.1,4.5-4.7c1.3-1.6,2.6-3.3,3.7-4.9 			c0.1-0.1,0.2-0.2,0.2-0.4c-0.3,1.4-0.6,2.8-0.8,4.2c-0.3,1.5-0.4,2.9-0.3,4.3c0.1,1.4,0.3,2.5,0.8,3.6c0.4,1,1.1,1.9,1.9,2.5 			c0.8,0.6,1.9,0.9,3.1,1c1,0,2-0.1,2.9-0.4c0.9-0.3,1.7-0.6,2.5-0.9c0.8-0.4,1.5-0.8,2.1-1.3c0.6-0.5,1.1-0.9,1.6-1.2 			c1.6-1.3,3.1-2.8,4.4-4.4c1.3-1.6,2.6-3.3,3.8-5c0.4-0.6,0.8-1.2,1.1-1.7c-0.3,1.2-0.5,2.4-0.7,3.6c-0.3,1.5-0.4,2.9-0.3,4.3 			c0.1,1.4,0.3,2.5,0.8,3.6c0.4,1,1.1,1.9,1.9,2.5c0.8,0.6,1.9,0.9,3.1,1c1,0,2-0.1,2.9-0.4c0.9-0.3,1.7-0.6,2.5-0.9 			c0.8-0.4,1.5-0.8,2.1-1.3c0.6-0.5,1.1-0.9,1.6-1.2c1.6-1.3,3.1-2.8,4.4-4.4C-291.7,296.8-290.4,295.2-289.3,293.4z M-361.1,289.9 			c0.5-1.8,1.3-3.9,2.4-6.3c1.1-2.4,2.6-4.7,4.2-6.9c1.7-2.2,3.6-4.2,5.7-5.9c2.1-1.7,4.4-2.8,6.8-3.3c1.6-0.3,2.6,0.2,3,1.3 			c0.4,1.2,0.2,2.6-0.6,4.3c-2.3,4.4-5.3,8-9,10.9c-3.7,2.9-7.9,5-12.6,6.3C-361.2,290.1-361.1,290-361.1,289.9z M-390.4,282.6 			l-0.9,2.6c-0.7,1.2-1.7,2.6-2.9,4.2c-1.2,1.6-2.5,3.1-3.8,4.6c-1.4,1.5-2.7,2.7-4,3.8c-1.3,1.1-2.4,1.8-3.4,2 			c-2,0.5-3.4,0.4-4.3-0.3c-0.9-0.6-1.5-1.5-1.8-2.7c-0.3-1.2-0.3-2.5-0.2-3.8c0.2-1.4,0.4-2.6,0.7-3.5c0.4-1.4,1-3,1.7-4.7 			c0.7-1.7,1.6-3.4,2.5-5.1c1-1.7,2.1-3.3,3.3-4.9c1.2-1.6,2.5-3,3.9-4.2c1.4-1.2,2.8-2.2,4.4-2.8c1.5-0.7,3.1-1,4.7-0.9 			c1.8,0.1,3.1,0.7,3.7,1.8c0.7,1.1,1.1,2.2,1.2,3.3c-0.9,1.8-1.7,3.6-2.5,5.4C-388.9,279-389.7,280.8-390.4,282.6z"/> 		<path id="XMLID_30_" class="st3" d="M-520,310.1c-5,0-8.6,3.7-8.6,8.3v0c0,4.6,3.6,8.3,8.5,8.3c5,0,8.6-3.7,8.6-8.3v0 			C-511.5,313.8-515.1,310.1-520,310.1z M-515.2,318.5c0,2.8-2,5-4.8,5c-2.8,0-4.9-2.3-4.9-5.1v0c0-2.8,2-5,4.8-5 			C-517.2,313.4-515.2,315.7-515.2,318.5L-515.2,318.5z"/> 		<path id="XMLID_29_" class="st3" d="M-498.2,319.6c0,2.5-1.3,3.9-3.5,3.9c-2.2,0-3.5-1.4-3.5-4v-9.1h-3.5v9.2c0,4.7,2.6,7.1,7,7.1 			c4.3,0,7.1-2.4,7.1-7.3v-9.1h-3.5V319.6z"/> 		<polygon id="XMLID_28_" class="st3" points="-492.2,313.7 -487.3,313.7 -487.3,326.5 -483.7,326.5 -483.7,313.7 -478.8,313.7  			-478.8,310.4 -492.2,310.4 		"/> 		<path id="XMLID_25_" class="st3" d="M-469.9,310.4h-6.3v16.1h6.3c5.1,0,8.5-3.5,8.5-8v0C-461.3,313.9-464.8,310.4-469.9,310.4z 			 M-465,318.5c0,2.8-2,4.8-4.8,4.8h-2.7v-9.7h2.7C-467,313.6-465,315.6-465,318.5L-465,318.5z"/> 		<path id="XMLID_22_" class="st3" d="M-450.3,310.1c-5,0-8.6,3.7-8.6,8.3v0c0,4.6,3.6,8.3,8.5,8.3c5,0,8.6-3.7,8.6-8.3v0 			C-441.8,313.8-445.4,310.1-450.3,310.1z M-445.5,318.5c0,2.8-2,5-4.8,5c-2.8,0-4.9-2.3-4.9-5.1v0c0-2.8,2-5,4.8-5 			C-447.5,313.4-445.5,315.7-445.5,318.5L-445.5,318.5z"/> 		<path id="XMLID_19_" class="st3" d="M-430.8,310.1c-5,0-8.6,3.7-8.6,8.3v0c0,4.6,3.6,8.3,8.5,8.3c5,0,8.6-3.7,8.6-8.3v0 			C-422.3,313.8-425.8,310.1-430.8,310.1z M-426,318.5c0,2.8-2,5-4.8,5c-2.8,0-4.9-2.3-4.9-5.1v0c0-2.8,2-5,4.8-5 			C-428,313.4-426,315.7-426,318.5L-426,318.5z"/> 		<path id="XMLID_16_" class="st3" d="M-405.7,315.8L-405.7,315.8c0-1.6-0.5-2.8-1.4-3.7c-1.1-1.1-2.6-1.6-4.7-1.6h-7.4v16.1h3.5 			v-5.1h2.8l3.4,5.1h4.1l-3.9-5.7C-407.1,320-405.7,318.4-405.7,315.8z M-409.3,316c0,1.4-1,2.3-2.7,2.3h-3.6v-4.6h3.5 			C-410.4,313.6-409.3,314.4-409.3,316L-409.3,316z"/> 		<path id="XMLID_15_" class="st3" d="M-389.1,316.9c-2.8-0.7-3.5-1.1-3.5-2.1v0c0-0.8,0.7-1.4,2.1-1.4c1.4,0,2.8,0.6,4.2,1.6 			l1.8-2.7c-1.6-1.3-3.6-2-6-2c-3.3,0-5.6,1.9-5.6,4.8v0c0,3.2,2.1,4.1,5.3,4.9c2.7,0.7,3.2,1.1,3.2,2v0c0,0.9-0.9,1.5-2.3,1.5 			c-1.8,0-3.4-0.8-4.8-2l-2.1,2.5c1.9,1.7,4.4,2.6,6.8,2.6c3.5,0,5.9-1.8,5.9-5v0C-384,318.9-385.8,317.7-389.1,316.9z"/> 		<polygon id="XMLID_14_" class="st3" points="-377.4,320 -369.8,320 -369.8,316.8 -377.4,316.8 -377.4,313.6 -368.8,313.6  			-368.8,310.4 -380.9,310.4 -380.9,326.5 -368.7,326.5 -368.7,323.4 -377.4,323.4 		"/> 		<path id="XMLID_11_" class="st3" d="M-352.1,315.8L-352.1,315.8c0-1.6-0.5-2.8-1.4-3.7c-1.1-1.1-2.6-1.6-4.7-1.6h-7.4v16.1h3.5 			v-5.1h2.8l3.4,5.1h4.1l-3.9-5.7C-353.5,320-352.1,318.4-352.1,315.8z M-355.7,316c0,1.4-1,2.3-2.7,2.3h-3.6v-4.6h3.5 			C-356.8,313.6-355.7,314.4-355.7,316L-355.7,316z"/> 		<polygon id="XMLID_9_" class="st3" points="-342.7,321.7 -346.9,310.4 -350.8,310.4 -344.3,326.6 -341.1,326.6 -334.6,310.4  			-338.5,310.4 		"/> 		<rect id="XMLID_8_" x="-332" y="310.4" class="st3" width="3.5" height="16.1"/> 		<path id="XMLID_7_" class="st3" d="M-316.8,323.5c-2.8,0-4.7-2.3-4.7-5.1v0c0-2.8,2-5,4.7-5c1.6,0,2.9,0.7,4.1,1.8l2.3-2.6 			c-1.5-1.5-3.3-2.5-6.3-2.5c-4.9,0-8.4,3.7-8.4,8.3v0c0,4.6,3.5,8.3,8.2,8.3c3.1,0,4.9-1.1,6.6-2.9l-2.3-2.3 			C-313.8,322.8-315,323.5-316.8,323.5z"/> 		<polygon id="XMLID_6_" class="st3" points="-304,320 -296.4,320 -296.4,316.8 -304,316.8 -304,313.6 -295.4,313.6 -295.4,310.4  			-307.5,310.4 -307.5,326.5 -295.3,326.5 -295.3,323.4 -304,323.4 		"/> 		<path id="XMLID_3_" class="st3" d="M-285.6,316.9c-2.8-0.7-3.5-1.1-3.5-2.1v0c0-0.8,0.7-1.4,2.1-1.4c1.4,0,2.8,0.6,4.2,1.6 			l1.8-2.7c-1.6-1.3-3.6-2-6-2c-3.3,0-5.6,1.9-5.6,4.8v0c0,3.2,2.1,4.1,5.3,4.9c2.7,0.7,3.2,1.1,3.2,2v0c0,0.9-0.9,1.5-2.3,1.5 			c-1.8,0-3.4-0.8-4.8-2l-2.1,2.5c1.9,1.7,4.4,2.6,6.8,2.6c3.5,0,5.9-1.8,5.9-5v0C-280.5,318.9-282.3,317.7-285.6,316.9z"/> 	</g> </g> <g id="XMLID_104_"> 	<g id="XMLID_5_"> 		<g id="XMLID_10_"> 			<g id="XMLID_74_"> 				<g id="XMLID_90_"> 					<circle id="XMLID_97_" class="st4" cx="600.4" cy="219.4" r="4.9"/> 					<path id="XMLID_98_" class="st4" d="M323.7,185.5c2.1,0,3.9-1.7,3.9-3.9c0-2.1-1.7-3.9-3.9-3.9c-2.1,0-3.9,1.7-3.9,3.9 						C319.8,183.8,321.6,185.5,323.7,185.5z"/> 					<path id="XMLID_100_" class="st4" d="M507,155.6c4.2,0,7.6-3.4,7.6-7.6c0-4.2-3.4-7.6-7.6-7.6c-4.2,0-7.6,3.4-7.6,7.6 						C499.4,152.2,502.8,155.6,507,155.6z"/> 					<g id="XMLID_48_"> 						<path id="XMLID_56_" class="st4" d="M572.6,175.7c-6.1-1.1-11-5.9-12.1-12.1c0-0.3-0.4-0.3-0.5,0c-1.1,6.1-5.9,11-12.1,12.1 							c-0.3,0-0.3,0.4,0,0.5c6.1,1.1,11,5.9,12.1,12.1c0,0.3,0.4,0.3,0.5,0c1.1-6.1,5.9-11,12.1-12.1 							C572.9,176.1,572.9,175.8,572.6,175.7z"/> 						<path id="XMLID_61_" class="st4" d="M437,129.7c-4.8-1.3-8.5-5-9.8-9.8c-0.1-0.5-0.8-0.5-1,0c-1.3,4.8-5,8.5-9.8,9.8 							c-0.5,0.1-0.5,0.8,0,1c4.8,1.3,8.5,5,9.8,9.8c0.1,0.5,0.8,0.5,1,0c1.3-4.8,5-8.5,9.8-9.8C437.5,130.5,437.5,129.8,437,129.7z" 							/> 						<path id="XMLID_62_" class="st4" d="M482,138.7c-4.5-0.8-8-4.3-8.8-8.8c0-0.2-0.3-0.2-0.4,0c-0.8,4.5-4.3,8-8.8,8.8 							c-0.2,0-0.2,0.3,0,0.4c4.5,0.8,8,4.3,8.8,8.8c0,0.2,0.3,0.2,0.4,0c0.8-4.5,4.3-8,8.8-8.8C482.2,139,482.2,138.7,482,138.7z"/> 						<path id="XMLID_63_" class="st4" d="M374.9,153.8c-5.4-1.1-9.7-5.4-10.8-10.8c-0.1-0.3-0.5-0.3-0.6,0 							c-1.1,5.4-5.4,9.7-10.8,10.8c-0.3,0.1-0.3,0.5,0,0.6c5.4,1.1,9.7,5.4,10.8,10.8c0.1,0.3,0.5,0.3,0.6,0 							c1.1-5.4,5.4-9.7,10.8-10.8C375.2,154.3,375.2,153.8,374.9,153.8z"/> 					</g> 				</g> 				<g id="XMLID_73_"> 					<path id="XMLID_88_" class="st4" d="M332.7,255.3h74l-37.9-53.1L332.7,255.3z M366.9,251.5h-9.2v-9.2h9.2V251.5z M366.9,240.4 						h-9.2v-9.2h9.2V240.4z M369.3,231.2h9.2v9.2h-9.2V231.2z M369.3,242.3h9.2v9.2h-9.2V242.3z"/> 					<path id="XMLID_52_" class="st4" d="M506.5,190.3l-47.6,52.3L426,210.3l35.3,45H555L506.5,190.3z M503.9,247.4H492v-11.9h11.9 						V247.4z M503.9,233H492v-11.9h11.9V233z M518.9,247.4H507v-11.9h11.9V247.4z M507,233v-11.9h11.9V233H507z"/> 				</g> 				<polygon id="XMLID_76_" class="st4" points="452.4,197.4 452.4,213.7 460.3,213.7 467.3,206.4 467.3,196.8 459.8,195.8 				"/> 			</g> 		</g> 		<path id="XMLID_40_" class="st5" d="M439.2,265.1l-21.8-3.4l-3.4-0.1c0,0,0.4-12.9-10-32.2c0,0,10.3,10.9,18.5,25 			c0,0,0.8-14.6-5.8-37.4c0,0,10.6,17.7,13.9,35.9c0,0,0.9-12.7,5.2-24.6C435.8,228.3,435.3,250.6,439.2,265.1z"/> 		<polygon id="XMLID_47_" class="st5" points="240.8,259.4 433.8,284 626.8,259.4 		"/> 		<path id="XMLID_45_" class="st5" d="M270,260.7c0,0,4.8-18.6,0.9-50.1c0,0,7.3,25.2,8.1,38.8c0,0,3.8-39.7,13.5-64.8 			c0,0-8.9,53.6-5.9,71.3c0,0,0.4-23.3,8.2-37.5c0,0-5.7,32.5,3.3,42.9h-23.3L270,260.7z"/> 		<path id="XMLID_49_" class="st4" d="M563.5,209.2c-0.7-10.8-9.6-19.4-20.5-19.8c0.1-1,0.1-1.6,0.1-1.6c0-0.5,0.1-1,0.1-1.5 			c0-14-11.4-25.4-25.4-25.4c-9.9,0-18.4,5.7-22.6,13.9c-1.5-8.6-9-15.2-18.1-15.2c-8.8,0-16.1,6.1-17.9,14.3c0,0,0-0.1,0-0.1 			c0,0.1,0,0.2-0.1,0.3c0,0-0.9-11,7.7-16c-4.5-5.8-11.6-9.6-19.5-9.6c-13.7,0-24.8,11.1-24.8,24.8c0,2.4,0.4,4.7,1,6.9 			c0,0,0-0.1-0.1-0.1c0,0,0,0.1,0,0.1c0,0-6-7-2.3-19.6c-3.9-2.3-8.5-3.6-13.3-3.6c-13.9,0-25.3,10.8-26.2,24.5c-0.1,0-0.2,0-0.3,0 			c-5.7-3.5-12.4-5.5-19.5-5.5c-19.3,0-35.3,14.7-37.2,33.5c0,0-0.9,8.5,1.4,15.9c0,0-4.1-4.3-6-11.9l0,0c0,0-27.8,6.2-20.1,41.8 			h23.8l42.2-60.9l53.6,6.7l88.2-22l0,0.1l58.9,76.2h20.2c3-4.7,4.8-10.3,4.8-16.3C591.7,223.1,579.2,210.1,563.5,209.2z"/> 	</g> 	<g id="XMLID_57_"> 		<path id="XMLID_105_" class="st5" d="M346.7,282.8L323,366h-16.3l-12.8-63.7L281,366h-16.4l-23.7-83.2h17.7l14.1,58.6l12.2-58.6 			H303l12,58.6l12.6-52.1c1.5-4.3,4.3-6.5,8.6-6.5H346.7z"/> 		<path id="XMLID_107_" class="st5" d="M362.4,318.2h-16.3c2-12,10.4-17.9,25.3-17.9c17.9,0,26.9,5.9,27.3,17.9v22 			c0,17.9-10.8,25.8-28.3,27c-15.5,1.2-26.3-6-26.3-20.3c0.4-15.5,11.6-19.7,28-21.3c7-0.9,10.5-2.9,10.5-6.5 			c-0.4-3.7-3.8-5.5-10.5-5.5C366.5,313.7,363.3,315.1,362.4,318.2z M383,339.5v-6c-3.8,1.6-8.2,2.9-13,3.9 			c-6.5,1.2-9.8,4.3-9.8,9.1c0.4,5.1,3.1,7.6,8.2,7.6C377.5,354.1,383,348.7,383,339.5z"/> 		<path id="XMLID_110_" class="st5" d="M406.6,332.6c0.5-20.9,11.6-31.3,33.3-31.3h2.3v16.9h-5.5c-9.1,0-13.6,4.8-13.6,14.2V366 			h-16.5V332.6z"/> 		<path id="XMLID_112_" class="st5" d="M509.5,291v47c0,19.5-10.2,29.1-30.3,29c-20.1-0.4-30.1-11.3-30.1-32.8 			c0-22,8.6-33.3,25.8-33.9c8.1,0,14.3,3.3,18.5,10v-27.5h8.1C505.9,282.8,509.5,286.6,509.5,291z M465.8,333.5 			c-0.1,13.1,4.3,19.7,13.6,19.7c9.3,0,13.9-6.6,13.9-19.7c-0.4-12.5-4.9-18.6-13.7-18.6C470.9,314.9,466.3,321,465.8,333.5z"/> 		<path id="XMLID_115_" class="st5" d="M545.7,367.5c-19.6-0.6-29.4-12-29.4-34s9.9-33,29.6-33.2c20.6,0,30.2,12.6,29,37.9h-41.8 			c0.6,9.9,4.9,14.9,12.8,14.9c3.8,0,7.3-1.6,10.5-4.6c1.5-1.6,3.3-2.3,5.5-2.3h12C570.5,359.9,561.7,367.5,545.7,367.5z 			 M533.4,326.6h24.3c-1-8.6-5-13-12-13S534.6,318.1,533.4,326.6z"/> 		<path id="XMLID_118_" class="st5" d="M598.9,290.8V366h-16.3v-83.2h8.4C595.3,282.8,598.9,286.5,598.9,290.8z"/> 		<path id="XMLID_120_" class="st5" d="M626.8,290.8V366h-16.3v-83.2h8.4C623.2,282.8,626.8,286.5,626.8,290.8z"/> 	</g> 	<g id="XMLID_58_"> 		<g id="XMLID_59_"> 			<path id="XMLID_99_" class="st4" d="M282.2,376.3c-6.5,0-11.2,4.9-11.2,10.9v0.1c0,6,4.7,10.9,11.2,10.9 				c6.5,0,11.2-4.9,11.2-10.9v-0.1C293.4,381.1,288.7,376.3,282.2,376.3z M288.5,387.2c0,3.6-2.6,6.6-6.3,6.6c-3.7,0-6.4-3-6.4-6.6 				v-0.1c0-3.6,2.6-6.6,6.3-6.6C285.9,380.5,288.5,383.6,288.5,387.2L288.5,387.2z"/> 			<path id="XMLID_96_" class="st4" d="M310.9,388.7c0,3.3-1.7,5.1-4.6,5.1c-2.8,0-4.6-1.8-4.6-5.2v-11.9h-4.6v12.1 				c0,6.2,3.5,9.4,9.1,9.4c5.7,0,9.3-3.1,9.3-9.5v-11.9h-4.6V388.7z"/> 			<polygon id="XMLID_95_" class="st4" points="318.8,380.9 325.2,380.9 325.2,397.7 329.8,397.7 329.8,380.9 336.3,380.9  				336.3,376.6 318.8,376.6 			"/> 			<path id="XMLID_86_" class="st4" d="M348.1,376.6h-8.2v21.1h8.2c6.6,0,11.2-4.6,11.2-10.6v-0.1 				C359.3,381.2,354.7,376.6,348.1,376.6z M354.4,387.2c0,3.7-2.6,6.3-6.4,6.3h-3.6v-12.7h3.6C351.9,380.8,354.4,383.4,354.4,387.2 				L354.4,387.2z"/> 			<path id="XMLID_83_" class="st4" d="M373.7,376.3c-6.5,0-11.2,4.9-11.2,10.9v0.1c0,6,4.7,10.9,11.2,10.9 				c6.5,0,11.2-4.9,11.2-10.9v-0.1C384.9,381.1,380.2,376.3,373.7,376.3z M380,387.2c0,3.6-2.6,6.6-6.3,6.6c-3.7,0-6.4-3-6.4-6.6 				v-0.1c0-3.6,2.6-6.6,6.3-6.6C377.4,380.5,380,383.6,380,387.2L380,387.2z"/> 			<path id="XMLID_80_" class="st4" d="M399.3,376.3c-6.5,0-11.2,4.9-11.2,10.9v0.1c0,6,4.7,10.9,11.2,10.9 				c6.5,0,11.2-4.9,11.2-10.9v-0.1C410.5,381.1,405.9,376.3,399.3,376.3z M405.7,387.2c0,3.6-2.6,6.6-6.3,6.6c-3.7,0-6.4-3-6.4-6.6 				v-0.1c0-3.6,2.6-6.6,6.3-6.6C403,380.5,405.7,383.6,405.7,387.2L405.7,387.2z"/> 			<path id="XMLID_77_" class="st4" d="M432.3,383.7L432.3,383.7c0-2.1-0.6-3.7-1.8-4.9c-1.4-1.4-3.5-2.1-6.2-2.1h-9.6v21.1h4.6V391 				h3.6l4.5,6.8h5.4l-5.2-7.5C430.4,389.2,432.3,387.1,432.3,383.7z M427.6,383.9c0,1.8-1.3,3-3.6,3h-4.7v-6.1h4.6 				C426.2,380.8,427.6,381.8,427.6,383.9L427.6,383.9z"/> 			<path id="XMLID_72_" class="st4" d="M454.1,385.1c-3.6-0.9-4.6-1.4-4.6-2.8v-0.1c0-1,0.9-1.8,2.7-1.8c1.8,0,3.6,0.8,5.5,2.1 				l2.4-3.5c-2.1-1.7-4.8-2.7-7.8-2.7c-4.3,0-7.4,2.5-7.4,6.4v0.1c0,4.2,2.7,5.4,7,6.5c3.5,0.9,4.3,1.5,4.3,2.7v0.1c0,1.2-1.1,2-3,2 				c-2.4,0-4.4-1-6.3-2.6l-2.7,3.3c2.5,2.3,5.8,3.4,9,3.4c4.6,0,7.7-2.4,7.7-6.5v-0.1C460.8,387.8,458.3,386.2,454.1,385.1z"/> 			<polygon id="XMLID_71_" class="st4" points="469.4,389.2 479.4,389.2 479.4,385 469.4,385 469.4,380.8 480.7,380.8 480.7,376.6  				464.8,376.6 464.8,397.7 480.9,397.7 480.9,393.6 469.4,393.6 			"/> 			<path id="XMLID_68_" class="st4" d="M502.6,383.7L502.6,383.7c0-2.1-0.6-3.7-1.8-4.9c-1.4-1.4-3.5-2.1-6.2-2.1H485v21.1h4.6V391 				h3.6l4.5,6.8h5.4l-5.2-7.5C500.8,389.2,502.6,387.1,502.6,383.7z M497.9,383.9c0,1.8-1.3,3-3.6,3h-4.7v-6.1h4.6 				C496.5,380.8,497.9,381.8,497.9,383.9L497.9,383.9z"/> 			<polygon id="XMLID_67_" class="st4" points="515,391.5 509.5,376.6 504.4,376.6 512.9,397.9 517,397.9 525.5,376.6 520.5,376.6  							"/> 			<rect id="XMLID_66_" x="529" y="376.6" class="st4" width="4.6" height="21.1"/> 			<path id="XMLID_65_" class="st4" d="M549,393.8c-3.6,0-6.1-3-6.1-6.6v-0.1c0-3.6,2.6-6.6,6.1-6.6c2.1,0,3.8,0.9,5.4,2.4l3-3.4 				c-2-1.9-4.3-3.3-8.3-3.3c-6.5,0-11,4.9-11,10.9v0.1c0,6.1,4.6,10.9,10.8,10.9c4.1,0,6.5-1.4,8.7-3.8l-3-3 				C552.9,392.9,551.4,393.8,549,393.8z"/> 			<polygon id="XMLID_64_" class="st4" points="565.8,389.2 575.7,389.2 575.7,385 565.8,385 565.8,380.8 577.1,380.8 577.1,376.6  				561.2,376.6 561.2,397.7 577.3,397.7 577.3,393.6 565.8,393.6 			"/> 			<path id="XMLID_60_" class="st4" d="M589.9,385.1c-3.6-0.9-4.6-1.4-4.6-2.8v-0.1c0-1,0.9-1.8,2.7-1.8c1.8,0,3.6,0.8,5.5,2.1 				l2.4-3.5c-2.1-1.7-4.8-2.7-7.8-2.7c-4.3,0-7.4,2.5-7.4,6.4v0.1c0,4.2,2.7,5.4,7,6.5c3.5,0.9,4.3,1.5,4.3,2.7v0.1c0,1.2-1.1,2-3,2 				c-2.4,0-4.4-1-6.3-2.6l-2.7,3.3c2.5,2.3,5.8,3.4,9,3.4c4.6,0,7.7-2.4,7.7-6.5v-0.1C596.6,387.8,594.2,386.2,589.9,385.1z"/> 		</g> 	</g> </g> --> <g id="SvgjsG1042"> 	<g id="SvgjsG1041"> 		<path id="SvgjsPath1040" class="st5" d="M-441.8,1033.4c-58.4,0-113.7-11.2-155.5-31.6c-46.2-22.5-71.7-54.1-71.7-88.9 			c0-34.8,25.5-66.3,71.7-88.9c41.9-20.4,97.1-31.6,155.5-31.6s113.7,11.2,155.5,31.6l0,0c46.2,22.5,71.7,54.1,71.7,88.9 			c0,34.8-25.5,66.3-71.7,88.9C-328.1,1022.2-383.4,1033.4-441.8,1033.4z M-441.8,801.6c-57.1,0-110.9,10.9-151.5,30.7 			c-42.9,20.9-66.5,49.6-66.5,80.6c0,31.1,23.6,59.7,66.5,80.6c40.6,19.8,94.5,30.7,151.5,30.7c57.1,0,110.9-10.9,151.5-30.7 			c42.9-20.9,66.5-49.6,66.5-80.6c0-31.1-23.6-59.7-66.5-80.6C-330.9,812.5-384.7,801.6-441.8,801.6z"></path> 	</g> 	<ellipse id="SvgjsEllipse1039" class="st6" cx="-441.8" cy="912.9" rx="208.2" ry="101.5"></ellipse> 	<path id="SvgjsPath1038" class="st5" d="M-450,915.5l-17,1.1l-2.6-0.1c0,0,0.3-13.8-7.8-28.9c0,0,8.1,8.5,14.4,19.5 		c0,0,0.6-11.4-4.5-29.2c0,0,8.3,13.8,10.9,28c0,0,0.7-9.9,4-19.2C-452.6,886.7-453,904.2-450,915.5z"></path> 	<path id="SvgjsPath1037" class="st5" d="M-599.4,914.5c0,0,3.8-14.5,0.7-39.1c0,0,5.7,19.7,6.4,30.3c0,0,2.9-31,10.5-50.6 		c0,0-6.9,41.8-4.6,55.7c0,0,0.3-18.2,6.4-29.3c0,0-4.4,25.4,2.6,33.5h-18.2L-599.4,914.5z"></path> 	<g id="SvgjsG1036"> 		<g id="SvgjsG1035"> 			<g id="SvgjsG1034"> 				<g id="SvgjsG1033"> 					<circle id="SvgjsCircle1032" class="st3" cx="-329" cy="868.5" r="3.9"></circle> 					<path id="SvgjsPath1031" class="st3" d="M-462.4,827.7c1.7,0,3-1.4,3-3c0-1.7-1.4-3-3-3c-1.7,0-3,1.4-3,3 						C-465.4,826.4-464.1,827.7-462.4,827.7z"></path> 					<circle id="SvgjsCircle1030" class="st3" cx="-403.8" cy="829.2" r="4.5"></circle> 					<g id="SvgjsG1029"> 						<path id="SvgjsPath1028" class="st3" d="M-342.8,844.6c-4.8-0.9-8.6-4.7-9.5-9.5c0-0.2-0.3-0.2-0.4,0c-0.9,4.8-4.7,8.6-9.5,9.5 							c-0.2,0-0.2,0.3,0,0.4c4.8,0.9,8.6,4.7,9.5,9.5c0,0.2,0.3,0.2,0.4,0c0.9-4.8,4.7-8.6,9.5-9.5 							C-342.6,844.9-342.6,844.6-342.8,844.6z"></path> 						<path id="SvgjsPath1027" class="st3" d="M-300.2,890.3c-3.7-1-6.7-4-7.7-7.7c-0.1-0.4-0.7-0.4-0.8,0c-1,3.7-4,6.7-7.7,7.7 							c-0.4,0.1-0.4,0.7,0,0.8c3.7,1,6.7,4,7.7,7.7c0.1,0.4,0.7,0.4,0.8,0c1-3.7,4-6.7,7.7-7.7C-299.8,891-299.8,890.4-300.2,890.3z 							"></path> 						<path id="SvgjsPath1026" class="st3" d="M-548.2,864.5c-3.5-0.6-6.3-3.4-6.9-6.9c0-0.2-0.3-0.2-0.3,0c-0.6,3.5-3.4,6.3-6.9,6.9 							c-0.2,0-0.2,0.3,0,0.3c3.5,0.6,6.3,3.4,6.9,6.9c0,0.2,0.3,0.2,0.3,0c0.6-3.5,3.4-6.3,6.9-6.9 							C-548.1,864.8-548.1,864.5-548.2,864.5z"></path> 						<path id="SvgjsPath1025" class="st3" d="M-492.9,832.3c-4.3-0.9-7.6-4.2-8.5-8.5c-0.1-0.3-0.4-0.3-0.5,0 							c-0.9,4.3-4.2,7.6-8.5,8.5c-0.3,0.1-0.3,0.4,0,0.5c4.3,0.9,7.6,4.2,8.5,8.5c0.1,0.3,0.4,0.3,0.5,0c0.9-4.3,4.2-7.6,8.5-8.5 							C-492.6,832.7-492.6,832.4-492.9,832.3z"></path> 					</g> 				</g> 				<g id="SvgjsG1024"> 					<path id="SvgjsPath1023" class="st3" d="M-532.1,908.2h58.1l-29.7-41.7L-532.1,908.2z M-505.3,905.2h-7.2V898h7.2V905.2z 						 M-505.3,896.5h-7.2v-7.2h7.2V896.5z M-503.5,889.3h7.2v7.2h-7.2V889.3z M-503.5,898h7.2v7.2h-7.2V898z"></path> 					<path id="SvgjsPath1022" class="st3" d="M-395.8,857.2l-37.3,41l-25.8-25.2l27.7,35.3h73.5L-395.8,857.2z M-397.8,902h-9.4v-9.4 						h9.4V902z M-397.8,890.7h-9.4v-9.3h9.4V890.7z M-386.1,902h-9.4v-9.4h9.4V902z M-395.4,890.7v-9.3h9.4v9.3H-395.4z"></path> 				</g> 				<polygon id="SvgjsPolygon1021" class="st3" points="-438.3,862.8 -438.3,875.5 -432,875.5 -426.6,869.8 -426.6,862.3 -432.4,861.5  									"></polygon> 			</g> 		</g> 		<path id="SvgjsPath1020" class="st3" d="M-350.4,872c-0.6-8.5-7.5-15.2-16.1-15.5c0.1-0.8,0.1-1.3,0.1-1.3c0-0.4,0.1-0.8,0.1-1.1 			c0-11-8.9-20-20-20c-7.8,0-14.5,4.4-17.8,10.9c-1.2-6.8-7.1-11.9-14.2-11.9c-6.9,0-12.6,4.8-14.1,11.3c0,0,0-0.1,0-0.1 			c0,0.1,0,0.1,0,0.2c0,0-0.7-8.6,6-12.5c-3.6-4.6-9.1-7.6-15.3-7.6c-10.7,0-19.4,8.7-19.4,19.5c0,1.9,0.3,3.7,0.8,5.4 			c0,0,0-0.1,0-0.1c0,0,0,0.1,0,0.1c0,0-4.7-5.5-1.8-15.4c-3.1-1.8-6.7-2.9-10.5-2.9c-10.9,0-19.9,8.5-20.6,19.2c-0.1,0-0.2,0-0.2,0 			c-4.5-2.7-9.7-4.4-15.3-4.4c-15.2,0-27.7,11.5-29.2,26.4c0,0-0.7,6.7,1.1,12.5c0,0-3.2-3.3-4.7-9.4l0,0c0,0-21.8,4.9-15.8,32.9 			h18.7l33.1-47.9l42.1,5.3l69.3-17.3l0,0l46.3,59.9h15.9c2.4-3.7,3.8-8.1,3.8-12.8C-328.2,882.9-338,872.7-350.4,872z"></path> 	</g> 	<path id="SvgjsPath1019" class="st5" d="M-441.8,1003.8c107.1,0,197.6-41.6,197.6-90.9h-395.3C-639.4,962.2-548.9,1003.8-441.8,1003.8 		z"></path> 	<path id="SvgjsPath1018" class="st5" d="M-293.8,916.8c0,0,3.8-14.5,0.7-39.1c0,0,5.7,19.7,6.4,30.3c0,0,2.9-31,10.5-50.6 		c0,0-6.9,41.8-4.6,55.7c0,0,0.3-18.2,6.4-29.3c0,0-4.4,25.4,2.6,33.5h-18.2L-293.8,916.8z"></path> 	<g id="SvgjsG1017"> 		<path id="SvgjsPath1016" class="st3" d="M-500.5,960.6c2.9-3.1,5.7-6.3,8.5-9.7c2.8-3.3,5.3-6.6,7.7-9.9c2.4-3.2,4.5-6.4,6.3-9.4 			c1.8-3,3.3-5.8,4.4-8.3c0.1-0.3,0-0.8-0.3-1.4c-0.4-0.7-0.8-1.3-1.2-1.9c-0.5-0.6-1-1.1-1.4-1.5c-0.5-0.4-0.8-0.4-1-0.1 			c-1.4,3.8-3.2,7.7-5.3,11.6c-2.1,3.9-4.4,7.7-6.9,11.5c-2.5,3.8-5.3,7.5-8.3,11.1c-3,3.6-6.1,7.1-9.4,10.3 			c-3.3,3.3-6.6,6.3-10.1,9.2c-3.5,2.9-7,5.4-10.5,7.6c-0.3,0.2-0.7,0.2-1.1,0c-0.4-0.2-0.7-0.6-0.7-1.1c0-0.4,0.4-1.4,1.3-3.1 			c0.9-1.7,2.1-3.8,3.6-6.4c1.5-2.5,3.2-5.4,5.1-8.6c1.9-3.2,3.8-6.4,5.7-9.8s3.8-6.7,5.5-9.9c1.8-3.3,3.3-6.3,4.6-9.1 			c0.2-0.5,0.1-1.2-0.3-2c-0.4-0.8-1-1.5-1.6-2.1c-0.7-0.6-1.4-1.1-2.1-1.3c-0.7-0.2-1.3-0.1-1.7,0.4c0,0.1,0,0.3-0.1,0.6 			c-0.1,0.3-0.2,0.6-0.3,0.9c-0.1,0.3-0.2,0.6-0.3,0.9c-0.1,0.3-0.2,0.4-0.2,0.5c-1.3,2.9-2.7,5.6-4.2,8.3c-1.5,2.7-3,5.4-4.6,8.1 			c0,0-0.1,0.1-0.1,0.1c-0.8,1.4-1.9,3.1-3.1,5.1c-1.3,2-2.7,4.2-4.2,6.5c-1.5,2.3-3.2,4.6-4.9,6.9c-1.7,2.3-3.5,4.5-5.3,6.4 			c-1.8,1.9-3.5,3.6-5.2,4.9c-1.7,1.3-3.3,2.2-4.8,2.4c-2,0.4-3.3,0-3.8-1.2c-0.5-1.2-0.5-2.9,0.1-5.1c0.6-2.3,1.5-4.9,2.9-7.9 			c1.4-3,3-6.2,4.7-9.4c1.8-3.3,3.6-6.5,5.5-9.8c1.9-3.2,3.6-6.2,5.1-8.9c1.5-2.7,2.8-5,3.8-6.8c1-1.9,1.5-3,1.5-3.5 			c0-0.5-0.2-1-0.5-1.6c-0.4-0.6-0.8-1.2-1.4-1.7c-0.6-0.6-1.2-1-1.9-1.4c-0.7-0.4-1.4-0.6-2-0.7c-1.9-0.2-4.2-0.2-6.9,0.1 			c-2.7,0.3-5.5,0.9-8.4,1.7c-3,0.9-5.9,2-8.9,3.4c-3,1.4-5.8,3.1-8.4,5.1c-2.6,2-4.8,4.3-6.7,7c-1.9,2.6-3.2,5.5-4,8.8 			c-0.2,1-0.1,1.9,0.3,2.6c0.5,0.8,1,1.4,1.7,1.9c0.7,0.5,1.4,0.8,2,1c0.7,0.2,1.1,0.2,1.3-0.1c-0.1-1.5,0.3-3.2,1.2-5.1 			c0.9-1.9,2.2-3.8,3.9-5.7c1.7-1.9,3.7-3.8,6-5.7c2.3-1.9,4.8-3.5,7.5-5c2.7-1.5,5.6-2.8,8.5-3.7c3-1,6-1.6,9.1-1.8 			c0.5,0,0.9,0.2,1.1,0.7c0.2,0.5,0.1,0.9-0.2,1.3c-2.6,3.7-5.1,7.5-7.6,11.5c-2.5,4-4.8,8-6.9,11.8c-2.1,3.9-3.9,7.6-5.4,11 			c-1.5,3.5-2.6,6.5-3.2,9c-0.3,1.7-0.4,3.3-0.2,4.8c0.2,1.5,0.7,2.9,1.5,4c0.8,1.1,1.9,1.9,3.3,2.4c1.4,0.5,3.2,0.5,5.3,0 			c1.1-0.2,2.3-0.8,3.5-1.5c1.2-0.8,2.5-1.7,3.8-2.9c1.3-1.1,2.6-2.4,3.9-3.8c1.3-1.4,2.6-2.9,4-4.4c-1.4,2.9-2.7,5.9-3.9,9 			c0,0.7,0.1,1.4,0.4,2c0.3,0.7,0.7,1.2,1.2,1.7c0.5,0.5,1.1,0.9,1.7,1.2c0.6,0.3,1.3,0.4,2,0.4c1.6,0,3.5-0.7,5.8-1.8 			c2.3-1.2,4.7-2.8,7.3-4.8c2.6-2,5.4-4.4,8.3-7.1C-506.3,966.6-503.4,963.7-500.5,960.6z"></path> 		<path id="SvgjsPath1015" class="st3" d="M-334.4,959.1c0.8-1.2,1.7-2.5,2.4-3.8c0.8-1.3,1.6-2.6,2.4-3.9c0.2-0.3,0.2-0.5,0.1-0.7 			c-0.1-0.2-0.2-0.4-0.4-0.5c-0.2-0.1-0.4-0.2-0.6-0.2c-0.2,0-0.4,0.1-0.5,0.3c-0.8,1.2-1.6,2.6-2.5,4.1c-0.9,1.5-1.8,2.9-2.9,4.3 			c-1,1.4-2.2,2.6-3.4,3.7c-1.2,1.1-2.5,1.8-3.9,2.2h-0.7c-0.8,0-1.1-0.7-1.1-1.9c0.1-1.2,0.4-2.7,1-4.5c0.6-1.8,1.4-3.8,2.3-6 			c0.9-2.2,1.9-4.3,2.9-6.3c1-2,1.8-3.7,2.6-5.3c0.8-1.5,1.3-2.6,1.6-3.2c0.7-1.3,1.4-2.7,2.1-4.1c0.7-1.4,1.4-2.8,2-4.1 			c0.6-1.3,1.2-2.4,1.6-3.4c0.5-1,0.8-1.8,1-2.3c0.2-0.7,0.2-1.3-0.2-2c-0.4-0.7-0.9-1.3-1.5-1.8c-0.6-0.5-1.3-0.9-2-1.2 			c-0.7-0.3-1.3-0.3-1.7-0.1c-0.3,1.1-0.7,2.3-1.1,3.5c-0.5,1.3-1,2.6-1.6,4c-0.6,1.4-1.2,2.8-1.9,4.3c-0.7,1.5-1.3,2.9-2,4.4 			c-1.1,2.1-2.2,4.3-3.3,6.4c-1.1,2.1-2.1,4.2-3.1,6.4c-0.6,1.2-1.1,2.5-1.6,3.7c-0.7,1-1.3,2.1-2,3.3c-0.9,1.5-1.8,2.9-2.9,4.3 			c-1,1.4-2.2,2.6-3.4,3.7c-1.2,1.1-2.5,1.8-3.9,2.2h-0.7c-0.8,0-1.1-0.7-1.1-1.9c0.1-1.2,0.4-2.7,1-4.5c0.6-1.8,1.4-3.8,2.3-6 			c0.9-2.2,1.9-4.3,2.9-6.3c1-2,1.8-3.7,2.6-5.3c0.8-1.5,1.3-2.6,1.6-3.2c0.7-1.3,1.4-2.7,2.1-4.1c0.7-1.4,1.4-2.8,2-4.1 			c0.6-1.3,1.2-2.4,1.6-3.4c0.5-1,0.8-1.8,1-2.3c0.2-0.7,0.2-1.3-0.2-2c-0.4-0.7-0.9-1.3-1.5-1.8c-0.6-0.5-1.3-0.9-2-1.2 			c-0.7-0.3-1.3-0.3-1.7-0.1c-0.3,1.1-0.7,2.3-1.1,3.5c-0.5,1.3-1,2.6-1.6,4c-0.6,1.4-1.2,2.8-1.9,4.3c-0.7,1.5-1.3,2.9-2,4.4 			c-1.1,2.1-2.2,4.3-3.3,6.4c-1.1,2.1-2.1,4.2-3.1,6.4c-0.5,1.1-1,2.2-1.4,3.3c-0.4,0.7-0.8,1.5-1.3,2.3c-0.5,0.9-1.1,1.8-1.8,2.8 			c-1.3,1.9-2.7,3.5-4,4.8c-1.4,1.3-2.7,2.4-4,3.2c-1.3,0.8-2.5,1.3-3.7,1.6c-1.2,0.3-2.2,0.3-3.1,0.1c-0.7-0.2-1.4-0.5-1.9-0.9 			c-0.5-0.5-0.9-1-1.2-1.6c-0.3-0.6-0.5-1.3-0.6-2c-0.1-0.7-0.2-1.4-0.1-2.1c3.6-1,7-2.6,10-4.8c3-2.2,5.5-5,7.3-8.3 			c0.7-1.2,1.2-2.2,1.3-3.3c0.1-1,0.1-1.9-0.3-2.7c-0.3-0.8-0.9-1.4-1.6-1.8c-0.7-0.5-1.6-0.7-2.6-0.7c-1.5,0-3.1,0.2-4.6,0.7 			c-1.5,0.5-3,1.2-4.3,2.1c-1.4,0.9-2.6,1.8-3.7,2.8c-1.1,1-2,2-2.7,2.8c-2.1,2.7-3.6,5.3-4.5,7.6c-0.1,0.4-0.3,0.7-0.4,1.1 			c-0.9,1.5-1.9,2.9-2.9,4.3c-1.1,1.4-2.2,2.6-3.4,3.7c-1.2,1.1-2.5,1.8-3.9,2.2h-0.7c-0.5,0-0.9-0.3-1-0.9c-0.1-0.5-0.2-1.2,0-2.1 			c0.1-0.8,0.4-1.8,0.7-2.8c0.3-1.1,0.7-2.1,1.2-3.1v0.1c1.2-3.3,2.6-6.4,4.2-9.4c1.6-3,3.1-6,4.6-9c0.7-1.3,1.4-2.7,2.1-4.1 			c0.7-1.4,1.4-2.8,2-4.1c0.6-1.3,1.2-2.4,1.7-3.4c0.5-1,0.8-1.8,1-2.3c0.2-0.7,0.1-1.3-0.2-2c-0.4-0.7-0.9-1.3-1.5-1.8 			c-0.6-0.5-1.2-0.9-1.9-1.2c-0.7-0.3-1.2-0.3-1.6-0.1c-0.3,1.1-0.7,2.3-1.1,3.5c-0.4,1.3-1,2.6-1.5,4.1c-0.6,1.4-1.2,2.9-1.9,4.3 			c-0.7,1.5-1.4,2.9-2.2,4.3l-3.2,6.1c-0.3-0.8-0.7-1.5-1.2-2c-0.5-0.6-1.2-1-2-1.2c-1.9-0.5-3.8-0.5-5.6-0.1 			c-1.8,0.4-3.6,1.2-5.2,2.2c-1.7,1.1-3.2,2.4-4.7,3.9c-1.5,1.5-2.8,3.2-3.9,4.9c-1.1,1.7-2,3.4-2.7,5.2c0,0.1-0.1,0.2-0.1,0.3 			c-0.6,0.9-1.2,1.9-1.9,2.8c-0.7,1-1.5,1.9-2.4,2.8c-0.9,0.9-1.7,1.6-2.6,2.3c-0.9,0.6-1.7,1.1-2.4,1.5c-0.8,0.4-1.4,0.5-2,0.5 			c-0.8,0-1.3-0.2-1.6-0.6c-0.3-0.4-0.4-0.8-0.3-1.4c0.1-0.6,0.3-1.2,0.6-1.9c0.3-0.7,0.7-1.4,1.2-2.1c0.5-0.7,0.9-1.4,1.4-2.1 			c0.5-0.7,0.9-1.3,1.4-1.8c1.2-1.6,2.4-3.2,3.7-4.7c1.2-1.5,2.3-2.9,3.2-4.2c0.9-1.3,1.6-2.5,2-3.5c0.4-1,0.4-1.8,0-2.4 			c0,0-0.2-0.2-0.4-0.4c-0.2-0.2-0.4-0.4-0.7-0.6c-0.3-0.2-0.5-0.4-0.7-0.6c-0.2-0.2-0.4-0.2-0.5-0.2c-0.2,0.2-0.7,0.6-1.4,1 			c-0.7,0.4-1.6,0.8-2.5,1.2c-1,0.4-1.9,0.8-2.9,1.2c-1,0.4-1.9,0.7-2.8,1c-0.8,0.3-1.5,0.4-1.9,0.5c-0.5,0.1-0.6,0-0.4-0.2l2.6-3.8 			c0.4-0.9,0.5-1.7,0.4-2.3c-0.1-0.6-0.3-1.2-0.6-1.6c-0.3-0.4-0.8-0.8-1.3-1.1c-0.5-0.3-1-0.6-1.5-0.8c-0.2,0.7-0.7,1.5-1.4,2.6 			c-0.7,1.1-1.4,2.2-2,3.4c-0.6,1.2-1,2.3-1.2,3.3c-0.2,1.1,0.1,1.9,0.8,2.5c-0.8,1.2-1.6,2.5-2.3,3.7c-0.7,1.2-1.5,2.5-2.3,3.8 			c-0.1,0.1-0.1,0.2-0.2,0.4c-0.5,0.8-1,1.7-1.5,2.6c-0.9,1.5-1.9,2.9-2.9,4.3c-1.1,1.4-2.2,2.6-3.4,3.7c-1.2,1.1-2.5,1.8-3.9,2.2 			h-0.7c-0.5,0-0.7-0.3-0.8-0.7c-0.1-0.5-0.1-1,0-1.8c0.1-0.7,0.3-1.5,0.6-2.4c0.3-0.9,0.6-1.8,1-2.7c0.4-0.9,0.7-1.8,1.1-2.7 			c0.4-0.9,0.7-1.6,0.9-2.2c0.2-0.7,0.1-1.3-0.2-2c-0.4-0.7-0.9-1.3-1.5-1.9c-0.6-0.5-1.3-1-2-1.2c-0.7-0.3-1.3-0.3-1.7-0.1 			c-0.1,0.8-0.3,1.8-0.6,2.9c-0.3,1.1-0.7,2.3-1.1,3.5c-0.5,0.9-1.2,1.9-2.1,3c-0.9,1.2-1.8,2.3-2.8,3.3c-1,1.1-1.9,2-2.9,2.8 			c-1,0.8-1.8,1.3-2.4,1.4c-1.4,0.3-2.4,0.3-3.1-0.2c-0.7-0.5-1.1-1.1-1.3-2c-0.2-0.8-0.2-1.8-0.1-2.8c0.1-1,0.3-1.8,0.5-2.5 			c0.3-1,0.7-2.2,1.2-3.4c0.5-1.2,1.1-2.4,1.8-3.7c0.7-1.2,1.5-2.4,2.4-3.5c0.9-1.1,1.8-2.1,2.8-3c1-0.9,2-1.5,3.1-2 			c1.1-0.5,2.2-0.7,3.4-0.7c0.9,0,1.7,0.3,2.2,0.7c0.5,0.5,0.9,1,1.1,1.6c0.2,0.6,0.4,1.2,0.4,1.9c0.1,0.6,0.1,1.2,0.2,1.6 			c0,0.3,0.1,0.6,0.2,0.7c0.2,0.2,0.4,0.2,0.6,0.2c0.2,0,0.4-0.1,0.7-0.3c0.2-0.2,0.3-0.4,0.3-0.7c0-0.9,0-1.7-0.1-2.6 			c-0.1-0.9-0.3-1.7-0.6-2.5c-0.3-0.8-0.7-1.4-1.2-2c-0.5-0.6-1.2-1-2-1.2c-1.9-0.5-3.8-0.5-5.6-0.1c-1.8,0.4-3.6,1.2-5.2,2.2 			c-1.7,1.1-3.2,2.4-4.7,3.9c-1.5,1.5-2.8,3.2-3.9,4.9c-1.1,1.7-2,3.4-2.7,5.2c-0.7,1.7-1.2,3.3-1.4,4.8c-0.1,0.7-0.2,1.7-0.1,2.8 			c0.1,1.1,0.3,2.2,0.8,3.2c0.5,1,1.2,1.9,2.1,2.7c1,0.8,2.3,1.2,4.1,1.3c1,0.1,2-0.1,3-0.6c1-0.5,2-1.1,3-1.9c1-0.8,2-1.7,2.9-2.7 			c0.9-1,1.8-2,2.6-3c-0.3,1-0.4,2-0.4,3c0,1,0.2,1.9,0.6,2.7c0.4,0.8,0.9,1.4,1.6,1.9c0.7,0.5,1.7,0.8,2.8,0.9c0.7,0,1.4,0,2.1-0.2 			c0.6-0.2,1.2-0.4,1.8-0.7c0.6-0.3,1.1-0.6,1.5-0.9c0.4-0.3,0.8-0.6,1.1-0.9c1.2-0.9,2.2-2,3.2-3.2c1-1.2,1.9-2.4,2.8-3.6 			c0.9-1.2,1.7-2.5,2.5-3.8c0.8-1.3,1.6-2.6,2.4-3.9c0.1-0.2,0.1-0.4,0.1-0.5c0.5-0.7,0.9-1.4,1.4-2.2c0.9-1.3,1.8-2.6,2.7-4 			c0.2,0,0.4,0.1,0.6,0.1c0.2,0,0.4,0,0.6,0c0.6,0,1.1,0,1.5-0.1c0.4,0,0.8-0.1,1.2-0.2c0.4-0.1,0.8-0.2,1.2-0.3 			c0.4-0.1,1-0.2,1.6-0.3c0.2,0,0.2,0.1,0,0.4c-0.2,0.3-0.4,0.8-0.8,1.3s-0.8,1.2-1.4,1.9c-0.5,0.7-1.1,1.5-1.6,2.2 			c-0.8,1.1-1.6,2.2-2.4,3.2c-0.8,1-1.5,2.1-2.1,3.1c-0.6,1.1-1.2,2.1-1.6,3.3c-0.4,1.1-0.6,2.3-0.7,3.6c0,1.4,0.3,2.6,1.1,3.7 			c0.7,1.1,1.9,1.7,3.5,1.7c1.5,0.1,3-0.2,4.5-0.8c1.4-0.6,2.8-1.5,4.1-2.5c1.3-1,2.5-2.2,3.6-3.5c0.8-0.9,1.4-1.7,2.1-2.6 			c0,0.6,0,1.3,0,2c0.1,1.1,0.3,2.2,0.8,3.2c0.5,1,1.2,1.9,2.1,2.7c1,0.8,2.3,1.2,4.1,1.3c1,0.1,2-0.1,3-0.6c1-0.5,2-1.1,3-1.9 			c1-0.8,2-1.7,2.9-2.7c0.9-1,1.8-2,2.6-3c-0.3,1-0.4,2-0.4,3c0,1,0.2,1.9,0.6,2.7c0.4,0.8,0.9,1.4,1.6,1.9c0.7,0.5,1.7,0.8,2.8,0.9 			c0.7,0,1.4,0,2.1-0.2c0.6-0.2,1.2-0.4,1.8-0.7c0.6-0.3,1.1-0.6,1.5-0.9c0.4-0.3,0.8-0.6,1.1-0.9c1.2-0.9,2.2-2,3.2-3.2 			c1-1.2,1.9-2.4,2.8-3.6c0,0,0.1-0.1,0.1-0.1c0,0.5,0,0.9,0,1.4c0.1,2.6,1,4.6,2.5,6.1c1.6,1.5,3.8,2.2,6.6,2.2c0.5,0,1.1,0,1.9,0 			c0.8,0,1.7-0.1,2.7-0.4c1-0.2,2-0.6,3.2-1.2c1.1-0.6,2.3-1.4,3.5-2.4c1.2-1.1,2.3-2.2,3.3-3.4c1-1.2,1.9-2.4,2.7-3.5 			c0.1-0.1,0.1-0.2,0.2-0.3c-0.2,1-0.4,2-0.6,3c-0.2,1.1-0.3,2.1-0.2,3.1c0.1,1,0.2,1.8,0.6,2.6c0.3,0.7,0.8,1.3,1.4,1.8 			c0.6,0.4,1.3,0.7,2.2,0.7c0.7,0,1.4-0.1,2.1-0.3c0.6-0.2,1.2-0.4,1.8-0.7c0.6-0.3,1.1-0.6,1.5-0.9c0.5-0.3,0.8-0.6,1.1-0.9 			c1.2-0.9,2.2-2,3.2-3.2c1-1.2,1.9-2.4,2.7-3.6c0.3-0.4,0.6-0.8,0.8-1.3c-0.2,0.9-0.4,1.7-0.5,2.6c-0.2,1.1-0.3,2.1-0.2,3.1 			c0.1,1,0.2,1.8,0.6,2.6c0.3,0.7,0.8,1.3,1.4,1.8c0.6,0.4,1.3,0.7,2.2,0.7c0.7,0,1.4-0.1,2.1-0.3c0.6-0.2,1.2-0.4,1.8-0.7 			c0.6-0.3,1.1-0.6,1.5-0.9c0.5-0.3,0.8-0.6,1.1-0.9c1.2-0.9,2.2-2,3.2-3.2C-336.2,961.5-335.3,960.3-334.4,959.1z M-386.1,956.5 			c0.3-1.3,0.9-2.8,1.7-4.6c0.8-1.7,1.8-3.4,3-5c1.2-1.6,2.6-3,4.1-4.3c1.5-1.2,3.2-2,4.9-2.4c1.2-0.2,1.9,0.1,2.2,1 			c0.3,0.8,0.1,1.9-0.4,3.1c-1.7,3.1-3.8,5.8-6.5,7.8c-2.7,2.1-5.7,3.6-9,4.6C-386.1,956.7-386.1,956.6-386.1,956.5z M-407.1,951.3 			l-0.6,1.9c-0.5,0.9-1.2,1.9-2.1,3c-0.9,1.2-1.8,2.3-2.8,3.3c-1,1.1-1.9,2-2.9,2.8c-1,0.8-1.8,1.3-2.4,1.4 			c-1.4,0.3-2.4,0.3-3.1-0.2c-0.7-0.5-1.1-1.1-1.3-2c-0.2-0.8-0.2-1.8-0.1-2.8c0.1-1,0.3-1.8,0.5-2.5c0.3-1,0.7-2.2,1.2-3.4 			c0.5-1.2,1.1-2.4,1.8-3.7c0.7-1.2,1.5-2.4,2.4-3.5c0.9-1.1,1.8-2.1,2.8-3c1-0.9,2-1.5,3.1-2c1.1-0.5,2.2-0.7,3.4-0.7 			c1.3,0.1,2.2,0.5,2.7,1.3c0.5,0.8,0.8,1.6,0.9,2.4c-0.6,1.3-1.2,2.6-1.8,3.9C-406.1,948.7-406.7,950-407.1,951.3z"></path> 		<path id="SvgjsPath1014" class="st3" d="M-500.4,971.1c-3.6,0-6.2,2.7-6.2,6v0c0,3.3,2.6,5.9,6.1,5.9c3.6,0,6.2-2.7,6.2-6v0 			C-494.3,973.7-496.9,971.1-500.4,971.1z M-497,977.1c0,2-1.4,3.6-3.5,3.6c-2,0-3.5-1.7-3.5-3.6v0c0-2,1.4-3.6,3.5-3.6 			C-498.4,973.4-497,975.1-497,977.1L-497,977.1z"></path> 		<path id="SvgjsPath1013" class="st3" d="M-484.7,977.9c0,1.8-0.9,2.8-2.5,2.8c-1.6,0-2.5-1-2.5-2.9v-6.5h-2.5v6.6 			c0,3.4,1.9,5.1,5,5.1c3.1,0,5.1-1.7,5.1-5.2v-6.5h-2.5V977.9z"></path> 		<polygon id="SvgjsPolygon1012" class="st3" points="-480.4,973.6 -476.8,973.6 -476.8,982.9 -474.3,982.9 -474.3,973.6 -470.8,973.6  			-470.8,971.3 -480.4,971.3 		"></polygon> 		<path id="SvgjsPath1011" class="st3" d="M-464.3,971.3h-4.5v11.6h4.5c3.6,0,6.1-2.5,6.1-5.8v0C-458.2,973.8-460.7,971.3-464.3,971.3z 			 M-460.8,977.1c0,2-1.4,3.5-3.5,3.5h-2v-7h2C-462.2,973.6-460.8,975-460.8,977.1L-460.8,977.1z"></path> 		<path id="SvgjsPath1010" class="st3" d="M-450.3,971.1c-3.6,0-6.2,2.7-6.2,6v0c0,3.3,2.6,5.9,6.1,5.9c3.6,0,6.2-2.7,6.2-6v0 			C-444.1,973.7-446.7,971.1-450.3,971.1z M-446.8,977.1c0,2-1.4,3.6-3.5,3.6c-2,0-3.5-1.7-3.5-3.6v0c0-2,1.4-3.6,3.5-3.6 			C-448.3,973.4-446.8,975.1-446.8,977.1L-446.8,977.1z"></path> 		<path id="SvgjsPath1009" class="st3" d="M-436.2,971.1c-3.6,0-6.2,2.7-6.2,6v0c0,3.3,2.6,5.9,6.1,5.9c3.6,0,6.2-2.7,6.2-6v0 			C-430.1,973.7-432.7,971.1-436.2,971.1z M-432.8,977.1c0,2-1.4,3.6-3.5,3.6c-2,0-3.5-1.7-3.5-3.6v0c0-2,1.4-3.6,3.5-3.6 			C-434.2,973.4-432.8,975.1-432.8,977.1L-432.8,977.1z"></path> 		<path id="SvgjsPath1008" class="st3" d="M-418.2,975.1L-418.2,975.1c0-1.1-0.3-2-1-2.7c-0.8-0.8-1.9-1.2-3.4-1.2h-5.3v11.6h2.5v-3.7 			h2l2.5,3.7h3l-2.8-4.1C-419.2,978.2-418.2,977-418.2,975.1z M-420.8,975.3c0,1-0.7,1.6-1.9,1.6h-2.6v-3.3h2.5 			C-421.5,973.6-420.8,974.1-420.8,975.3L-420.8,975.3z"></path> 		<path id="SvgjsPath1007" class="st3" d="M-406.2,975.9c-2-0.5-2.5-0.8-2.5-1.5v0c0-0.6,0.5-1,1.5-1c1,0,2,0.4,3,1.1l1.3-1.9 			c-1.2-0.9-2.6-1.5-4.3-1.5c-2.4,0-4,1.4-4,3.5v0c0,2.3,1.5,2.9,3.8,3.5c1.9,0.5,2.3,0.8,2.3,1.5v0c0,0.7-0.6,1.1-1.7,1.1 			c-1.3,0-2.4-0.5-3.5-1.4l-1.5,1.8c1.4,1.2,3.2,1.9,4.9,1.9c2.5,0,4.2-1.3,4.2-3.6v0C-402.6,977.4-403.9,976.5-406.2,975.9z"></path> 		<polygon id="SvgjsPolygon1006" class="st3" points="-397.8,978.2 -392.4,978.2 -392.4,975.9 -397.8,975.9 -397.8,973.6 -391.6,973.6  			-391.6,971.3 -400.4,971.3 -400.4,982.9 -391.6,982.9 -391.6,980.6 -397.8,980.6 		"></polygon> 		<path id="SvgjsPath1005" class="st3" d="M-379.7,975.1L-379.7,975.1c0-1.1-0.3-2-1-2.7c-0.8-0.8-1.9-1.2-3.4-1.2h-5.3v11.6h2.5v-3.7 			h2l2.5,3.7h3l-2.8-4.1C-380.7,978.2-379.7,977-379.7,975.1z M-382.2,975.3c0,1-0.7,1.6-1.9,1.6h-2.6v-3.3h2.5 			C-383,973.6-382.2,974.1-382.2,975.3L-382.2,975.3z"></path> 		<polygon id="SvgjsPolygon1004" class="st3" points="-372.8,979.4 -375.9,971.3 -378.7,971.3 -374,982.9 -371.8,982.9 -367.1,971.3  			-369.8,971.3 		"></polygon> 		<rect id="SvgjsRect1003" x="-365.2" y="971.3" class="st3" width="2.5" height="11.6"></rect> 		<path id="SvgjsPath1002" class="st3" d="M-354.2,980.7c-2,0-3.4-1.7-3.4-3.6v0c0-2,1.4-3.6,3.4-3.6c1.2,0,2.1,0.5,3,1.3l1.6-1.9 			c-1.1-1.1-2.4-1.8-4.6-1.8c-3.6,0-6,2.7-6,6v0c0,3.3,2.5,5.9,5.9,5.9c2.2,0,3.6-0.8,4.7-2.1l-1.6-1.6 			C-352.1,980.2-352.9,980.7-354.2,980.7z"></path> 		<polygon id="SvgjsPolygon1001" class="st3" points="-345,978.2 -339.6,978.2 -339.6,975.9 -345,975.9 -345,973.6 -338.8,973.6  			-338.8,971.3 -347.6,971.3 -347.6,982.9 -338.8,982.9 -338.8,980.6 -345,980.6 		"></polygon> 		<path id="SvgjsPath1000" class="st3" d="M-331.8,975.9c-2-0.5-2.5-0.8-2.5-1.5v0c0-0.6,0.5-1,1.5-1c1,0,2,0.4,3,1.1l1.3-1.9 			c-1.2-0.9-2.6-1.5-4.3-1.5c-2.4,0-4,1.4-4,3.5v0c0,2.3,1.5,2.9,3.8,3.5c1.9,0.5,2.3,0.8,2.3,1.5v0c0,0.7-0.6,1.1-1.7,1.1 			c-1.3,0-2.4-0.5-3.5-1.4l-1.5,1.8c1.4,1.2,3.2,1.9,4.9,1.9c2.5,0,4.2-1.3,4.2-3.6v0C-328.1,977.4-329.5,976.5-331.8,975.9z"></path> 	</g> </g> </svg><style>@media (prefers-color-scheme: light) { :root { filter: none; } }
</style></svg>